<svg width="30" height="24" viewBox="0 0 30 24" fill="none" xmlns="http://www.w3.org/2000/svg">
<g clip-path="url(#clip0_2232_15238)">
<path d="M30 8.3077C30 10.6573 29.4345 12.8392 28.3036 14.8532C27.1131 16.9231 25.5952 18.7413 23.75 20.3077C21.9048 21.8741 19.9702 23.1049 17.9464 24L15.7143 21.3986C17.2619 20.1678 18.631 18.7972 19.8214 17.2867C20.9524 15.7762 21.5179 14.3217 21.5179 12.9231C21.5179 12.028 21.3095 11.4406 20.8929 11.1608C20.4167 10.9371 19.881 10.6294 19.2857 10.2378C18.631 9.79021 18.0357 9.17483 17.5 8.39161C16.9643 7.60839 16.6964 6.65734 16.6964 5.53846C16.6964 3.86014 17.2619 2.51748 18.3929 1.51049C19.5238 0.503496 20.9821 0 22.7679 0C24.9107 0 26.6667 0.727272 28.0357 2.18182C29.3452 3.69231 30 5.73427 30 8.3077ZM14.2857 8.3077C14.2857 10.6573 13.7202 12.8392 12.5893 14.8532C11.3988 16.9231 9.88095 18.7413 8.03571 20.3077C6.19048 21.8741 4.25595 23.1049 2.23214 24L0 21.3986C1.54762 20.1678 2.91667 18.7972 4.10714 17.2867C5.2381 15.7762 5.80357 14.3217 5.80357 12.9231C5.80357 12.028 5.59524 11.4406 5.17857 11.1608C4.70238 10.9371 4.16667 10.6294 3.57143 10.2378C2.91667 9.79021 2.32143 9.17483 1.78571 8.39161C1.25 7.60839 0.982141 6.65734 0.982141 5.53846C0.982141 3.86014 1.54762 2.51748 2.67857 1.51049C3.80952 0.503496 5.26786 0 7.05357 0C9.19643 0 10.9524 0.727272 12.3214 2.18182C13.631 3.69231 14.2857 5.73427 14.2857 8.3077Z" fill="#D1E0FF"/>
</g>
<defs>
<clipPath id="clip0_2232_15238">
<rect width="30" height="24" fill="white"/>
</clipPath>
</defs>
</svg>
