<svg width="53" height="39" viewBox="0 0 53 39" fill="none" xmlns="http://www.w3.org/2000/svg">
<path d="M11.842 39C8.27975 39 5.39146 37.7619 3.17711 35.2857C1.05904 32.7143 0 29.381 0 25.2857C0 19.9524 1.58856 15 4.76567 10.4286C7.94278 5.7619 11.8901 2.28571 16.6076 0L17.4741 1.71428C15.4523 3.23809 13.6712 5.19047 12.1308 7.57142C10.5904 9.95238 9.4832 12.9048 8.80927 16.4286L11.842 17.1429C15.2116 17.9048 17.8111 19.3333 19.6403 21.4286C21.5658 23.4286 22.5286 25.8571 22.5286 28.7143C22.5286 31.7619 21.4696 34.2381 19.3515 36.1429C17.3297 38.0476 14.8265 39 11.842 39ZM42.3134 39C38.7511 39 35.8629 37.7619 33.6485 35.2857C31.5304 32.7143 30.4714 29.381 30.4714 25.2857C30.4714 19.9524 32.0599 15 35.2371 10.4286C38.4142 5.7619 42.3615 2.28571 47.079 0L47.9455 1.71428C45.9237 3.23809 44.1426 5.19047 42.6022 7.57142C41.0618 9.95238 39.9546 12.9048 39.2807 16.4286L42.3134 17.1429C45.683 17.9048 48.2825 19.3333 50.1117 21.4286C52.0372 23.4286 53 25.8571 53 28.7143C53 31.7619 51.941 34.2381 49.8229 36.1429C47.8011 38.0476 45.2979 39 42.3134 39Z" fill="#3A3A38" fill-opacity="0.1"/>
</svg>
