<svg width="47" height="47" viewBox="0 0 47 47" fill="none" xmlns="http://www.w3.org/2000/svg">
<path d="M44.9009 44.8991H31.5209L34.371 41.3704L30.7197 38.3332L27.8927 41.9387L31.3852 44.8991H22.1515L29.0718 35.3751L30.6493 33.209C30.6493 33.209 31.4037 32.1818 31.8507 30.9399C32.5284 29.0615 32.6068 25.8983 29.1353 22.9125L23.4801 18.0598C27.8702 17.5047 30.5239 19.5652 30.9329 19.9088L30.9906 19.9602L30.9923 19.9614L32.061 20.878C32.061 20.878 36.0115 24.2775 33.2336 28.0911L33.9516 28.6865L35.5303 26.5204C35.5303 26.5204 36.2807 25.4922 36.7307 24.2503C37.4089 22.3724 37.4857 19.2082 34.0146 16.2224L24.0861 7.70572C24.0861 7.70572 22.9499 6.70469 22.5547 6.24256C22.2359 5.86758 21.6756 5.22132 21.6224 4.39183C21.5757 3.68007 21.9251 3.10428 22.419 2.35105L22.6009 2.10207H44.9009V44.8991ZM2.09974 44.8991V2.10207H21.4537L19.6295 4.59736C19.6295 4.59736 17.1203 8.04131 19.9894 10.5084L24.7959 14.6419L24.822 14.6633C24.5967 14.7009 24.4448 14.7303 24.4448 14.7303C23.3011 14.9417 22.1059 15.3917 21.1383 16.0473L19.0819 14.2832C19.0819 14.2832 18.2426 13.5635 17.5141 12.7421C17.0296 12.1951 16.3653 11.398 16.988 9.97342C17.1041 9.70778 17.274 9.44606 17.4616 9.15496L16.7661 8.53402L14.7479 11.2859C14.7479 11.2859 12.2392 14.7303 15.1071 17.1985L17.6199 19.3722C17.375 19.6668 17.2398 19.8539 17.2398 19.8539L16.0718 21.4575C16.0718 21.4575 14.6127 23.645 15.0407 26.0358C15.1591 26.6984 15.623 28.5133 17.9856 30.5449L23.9098 35.6368L25.2407 33.7998C26.686 31.6233 25.1379 30.345 25.1379 30.345L19.6071 25.5933C19.6071 25.5933 16.3704 22.8103 18.034 20.535C18.1254 20.3779 18.2686 20.2155 18.4297 20.0526L19.916 21.3322L27.1816 27.5683C27.1816 27.5683 30.9699 30.847 27.7686 35.2428L24.0717 40.3203L14.7311 32.2795C14.7311 32.2795 11.9636 29.9002 13.157 27.224L12.4512 26.6019L11.1254 28.4221C11.1254 28.4221 9.7339 30.3323 10.1643 32.7231C10.2809 33.3851 10.7453 35.2012 13.109 37.2333L22.0232 44.8991H2.09974ZM0 47H47V0H0V47Z" fill="white"/>
</svg>
