<svg width="305" height="305" viewBox="0 0 305 305" fill="none" xmlns="http://www.w3.org/2000/svg">
<g opacity="0.16" clip-path="url(#clip0_10629_2071)">
<path d="M310.357 310.341H210.83L232.031 284.093L204.871 261.501L183.843 288.32L209.821 310.341H141.137L192.613 239.498L204.347 223.385C204.347 223.385 209.959 215.745 213.284 206.507C218.324 192.535 218.908 169.005 193.085 146.796L151.02 110.699C183.675 106.57 203.415 121.897 206.457 124.453L206.886 124.836L206.899 124.844L214.848 131.663C214.848 131.663 244.233 156.949 223.57 185.316L228.911 189.745L240.654 173.633C240.654 173.633 246.236 165.985 249.583 156.747C254.628 142.779 255.199 119.241 229.38 97.032L155.527 33.6812C155.527 33.6812 147.076 26.2351 144.136 22.7977C141.764 20.0085 137.597 15.2012 137.201 9.03113C136.854 3.73679 139.453 -0.546204 143.126 -6.14905L144.48 -8.00104H310.357V310.341ZM-8.01652 310.341V-8.00104H135.947L122.377 10.56C122.377 10.56 103.712 36.1776 125.054 54.5287L160.807 85.2757L161.001 85.4348C159.325 85.714 158.196 85.9327 158.196 85.9327C149.688 87.5055 140.798 90.8531 133.601 95.7297L118.304 82.6075C118.304 82.6075 112.061 77.2536 106.642 71.144C103.038 67.0749 98.0968 61.146 102.728 50.5494C103.592 48.5734 104.856 46.6267 106.252 44.4613L101.078 39.8425L86.066 60.3122C86.066 60.3122 67.4051 85.9327 88.7381 104.293L107.429 120.462C105.607 122.653 104.602 124.045 104.602 124.045L95.9138 135.973C95.9138 135.973 85.0604 152.245 88.2441 170.029C89.1247 174.957 92.5749 188.457 110.149 203.569L154.216 241.444L164.116 227.78C174.867 211.591 163.351 202.082 163.351 202.082L122.21 166.736C122.21 166.736 98.1349 146.035 110.509 129.111C111.189 127.942 112.254 126.734 113.453 125.523L124.509 135.041L178.553 181.428C178.553 181.428 206.732 205.816 182.919 238.514L155.42 276.282L85.941 216.471C85.941 216.471 65.3549 198.773 74.2323 178.867L68.9818 174.239L59.1203 187.778C59.1203 187.778 48.7696 201.987 51.9709 219.771C52.8388 224.695 56.2929 238.204 73.875 253.32L140.183 310.341H-8.01652ZM-23.6353 325.969H325.971V-23.6371H-23.6353V325.969Z" fill="#C6782B"/>
</g>
<defs>
<clipPath id="clip0_10629_2071">
<rect width="304.975" height="304.975" fill="white"/>
</clipPath>
</defs>
</svg>
